<?xml version="1.0" encoding="utf-8"?><svg xml:space="preserve" viewBox="0 0 100 100" y="0" x="0" xmlns="http://www.w3.org/2000/svg" id="Layer_1" version="1.1" width="30px" height="30px" xmlns:xlink="http://www.w3.org/1999/xlink" style="width:100%;height:100%;background-size:initial;background-repeat-y:initial;background-repeat-x:initial;background-position-y:initial;background-position-x:initial;background-origin:initial;background-color:initial;background-clip:initial;background-attachment:initial;animation-play-state:paused" ><g class="ldl-scale" style="transform-origin:50% 50%;transform:rotate(0deg) scale(0.8, 0.8);animation-play-state:paused" ><g style="animation-play-state:paused" ><path fill="none" d="M90 50c0-.761-.026-1.516-.068-2.267v4.534c.042-.751.068-1.506.068-2.267z" style="animation-play-state:paused" ></path>
<path fill="#19227a" d="M89.932 52.267v-4.534C88.756 26.697 71.33 10 50 10c-22.091 0-40 17.909-40 40s17.909 40 40 40c21.33 0 38.756-16.697 39.932-37.733z" style="fill:rgb(25, 34, 122);animation-play-state:paused" ></path></g>
<path fill="#fff" d="M37.933 56.066l2.09 6.499 6.384-2.418-3.778 5.686 5.871 3.484-6.801.592.937 6.762-4.703-4.948-4.703 4.947.937-6.762-6.801-.592 5.871-3.484-3.778-5.686 6.384 2.418 2.09-6.498z" id="_x37_PS_14_" style="fill:rgb(255, 255, 255);animation-play-state:paused" ></path>
<path fill="#fff" d="M69.145 67.765l.995 3.095 3.04-1.151-1.799 2.708 2.796 1.659-3.238.282.446 3.22-2.239-2.356-2.239 2.356.446-3.22-3.238-.282 2.796-1.659-1.799-2.708 3.04 1.151.993-3.095z" id="_x37_PS_13_" style="fill:rgb(255, 255, 255);animation-play-state:paused" ></path>
<path fill="#fff" d="M60.413 39.162l.995 3.095 3.04-1.151-1.799 2.708 2.796 1.659-3.238.282.446 3.22-2.239-2.356-2.239 2.356.446-3.22-3.238-.282 2.796-1.659-1.799-2.708 3.04 1.151.993-3.095z" id="_x37_PS_12_" style="fill:rgb(255, 255, 255);animation-play-state:paused" ></path>
<path fill="#fff" d="M69.145 19.592l.995 3.095 3.04-1.151-1.799 2.708 2.796 1.659-3.238.282.446 3.22-2.239-2.356-2.239 2.356.446-3.22-3.238-.282 2.796-1.659-1.799-2.708 3.04 1.151.993-3.095z" id="_x37_PS_11_" style="fill:rgb(255, 255, 255);animation-play-state:paused" ></path>
<path fill="#fff" d="M80.686 34.345l.995 3.095 3.04-1.151-1.799 2.708 2.796 1.659-3.239.282.446 3.22-2.239-2.358-2.239 2.356.446-3.22-3.239-.282 2.796-1.659-1.799-2.708 3.04 1.151.995-3.093z" id="_x37_PS_10_" style="fill:rgb(255, 255, 255);animation-play-state:paused" ></path>
<path fill="#fff" d="M72.758 48.84l.786 1.928 2.077.152-1.591 1.344.497 2.022-1.77-1.098-1.77 1.098.497-2.022-1.591-1.344 2.077-.152.788-1.928z" id="_x35_PS_2_" style="fill:rgb(255, 255, 255);animation-play-state:paused" ></path>
<path fill="none" d="M43.853 10.471a39.719 39.719 0 0 0-11.01 3.39v6.648l11.01-10.038z" style="animation-play-state:paused" ></path>
<path fill="none" d="M13.469 33.71a39.756 39.756 0 0 0-2.263 6.524l7.156-6.524h-4.893z" style="animation-play-state:paused" ></path>
<path fill="none" d="M26.651 17.532c-.605.436-1.2.886-1.779 1.355l1.779 1.622v-2.977z" style="animation-play-state:paused" ></path>
<path fill="none" d="M50 10c-.147 0-.292.01-.438.011v4.723l-8.43 7.686h8.43v11.29h-8.43l8.43 7.686v4.734H44.37L32.843 35.621V46.13h-6.192V35.621L15.124 46.13H10.19A40.243 40.243 0 0 0 10 50c0 22.091 17.909 40 40 40s40-17.909 40-40-17.909-40-40-40z" style="animation-play-state:paused" ></path>
<path fill="#e60a11" d="M26.324 33.71h-2.769L10.211 45.876c-.009.084-.013.17-.021.254h2.511l13.623-12.42z" style="fill:rgb(230, 10, 17);animation-play-state:paused" ></path>
<path fill="#e60a11" d="M22.237 21.219c-.406.392-.803.792-1.193 1.201h2.51l-1.317-1.201z" style="fill:rgb(230, 10, 17);animation-play-state:paused" ></path>
<path d="M35.939 33.71l13.623 12.42v-2.525L38.708 33.71z" fill="#e60a11" style="fill:rgb(230, 10, 17);animation-play-state:paused" ></path>
<path fill="#e60a11" d="M35.939 22.42l13.61-12.408c-.984.011-1.958.06-2.924.141L33.17 22.42h2.769z" style="fill:rgb(230, 10, 17);animation-play-state:paused" ></path>
<path fill="#fff" d="M31.604 23.847v.831h17.957V22.42h-8.43l8.43-7.686v-4.723h-.013L35.939 22.42H33.17l13.456-12.267c-.933.078-1.859.178-2.772.319L32.844 20.51v-6.648c-.418.199-.828.41-1.238.623v9.362z" style="fill:rgb(255, 255, 255);animation-play-state:paused" ></path>
<path d="M36.231 31.452H31.604V46.13h1.239V35.621L44.369 46.13h5.193L35.939 33.71h2.769l10.854 9.895v-2.209l-8.431-7.686h8.431v-2.258H38.654z" fill="#fff" style="fill:rgb(255, 255, 255);animation-play-state:paused" ></path>
<path fill="#fff" d="M23.262 24.678H27.889v-8.009c-.419.279-.83.569-1.238.863v2.977l-1.779-1.622a40.211 40.211 0 0 0-2.634 2.332l1.317 1.201h-2.51a39.772 39.772 0 0 0-2.006 2.258h4.223z" style="fill:rgb(255, 255, 255);animation-play-state:paused" ></path>
<path fill="#fff" d="M26.324 33.71L12.701 46.13h2.423L26.65 35.621V46.13h1.238V31.452H14.561a39.79 39.79 0 0 0-1.093 2.258h4.893l-7.156 6.524a39.849 39.849 0 0 0-.995 5.641L23.555 33.71h2.769z" style="fill:rgb(255, 255, 255);animation-play-state:paused" ></path>
<path fill="#e60a11" d="M26.032 31.452h1.858V46.13h3.716V31.452h17.957v-6.774H31.604V14.484a39.808 39.808 0 0 0-3.715 2.185v8.009h-8.851a40.063 40.063 0 0 0-4.476 6.774H26.032z" style="fill:rgb(230, 10, 17);animation-play-state:paused" ></path>
<metadata xmlnsD="https://loading.io/stock/" style="animation-play-state:paused" ><dname style="animation-play-state:paused" >australia</dname>
<dtags style="animation-play-state:paused" >australia,national flag,country,nation symbol</dtags>
<dlicense style="animation-play-state:paused" >by</dlicense>
<dslug style="animation-play-state:paused" >i5pzvb</dslug></metadata></g><!-- generated by https://loading.io/ --></svg>