<?xml version="1.0" encoding="utf-8"?><svg xml:space="preserve" viewBox="0 0 100 100" y="0" x="0" xmlns:xlink="http://www.w3.org/1999/xlink" xmlns="http://www.w3.org/2000/svg" id="圖層_1" version="1.1" width="30px" height="30px" style="width:100%;height:100%;background-size:initial;background-repeat-y:initial;background-repeat-x:initial;background-position-y:initial;background-position-x:initial;background-origin:initial;background-color:initial;background-clip:initial;background-attachment:initial;animation-play-state:paused" ><g class="ldl-scale" style="transform-origin:50% 50%;transform:rotate(0deg) scale(0.8, 0.8);animation-play-state:paused" ><g style="animation-play-state:paused" ><defs style="animation-play-state:paused" ><circle r="40" cy="50" cx="50" id="SVGID_43_" style="animation-play-state:paused" ></circle></defs>
<clipPath id="SVGID_2_" style="animation-play-state:paused" ><use overflow="visible" xlink:href="#SVGID_43_" style="animation-play-state:paused" ></use></clipPath>
<path d="M10 10h80v26.667H10z" fill="#f93" clip-path="url(#SVGID_2_)" style="fill:rgb(255, 153, 51);animation-play-state:paused" ></path>
<path d="M10 36.667h80v26.667H10z" clip-path="url(#SVGID_2_)" fill="#f7f7f7" style="fill:rgb(247, 247, 247);animation-play-state:paused" ></path>
<path d="M10 63.333h80V90H10z" fill="#128807" clip-path="url(#SVGID_2_)" style="fill:rgb(18, 136, 7);animation-play-state:paused" ></path>
<g clip-path="url(#SVGID_2_)" style="animation-play-state:paused" ><path fill="#008" d="M50 39.333c-5.891 0-10.667 4.776-10.667 10.667S44.109 60.667 50 60.667 60.667 55.891 60.667 50 55.891 39.333 50 39.333zm8.792 13.805a.465.465 0 0 0-.356.86 9.26 9.26 0 0 1-.757 1.307.467.467 0 0 0-.568.738 9.285 9.285 0 0 1-1.068 1.068.465.465 0 0 0-.738.568c-.413.286-.85.539-1.307.757a.466.466 0 0 0-.86.356c-.47.168-.958.299-1.459.39a.466.466 0 0 0-.923.12 9.431 9.431 0 0 1-1.51 0 .466.466 0 0 0-.923-.12 9.322 9.322 0 0 1-1.459-.39.465.465 0 0 0-.86-.356 9.26 9.26 0 0 1-1.307-.757.467.467 0 0 0-.738-.568 9.285 9.285 0 0 1-1.068-1.068.465.465 0 0 0-.568-.738 9.415 9.415 0 0 1-.757-1.307.466.466 0 0 0-.356-.86 9.242 9.242 0 0 1-.39-1.459.466.466 0 0 0-.12-.923 9.431 9.431 0 0 1 0-1.51.466.466 0 0 0 .12-.923c.091-.502.223-.989.39-1.459a.465.465 0 0 0 .356-.86 9.26 9.26 0 0 1 .757-1.307.467.467 0 0 0 .568-.738 9.285 9.285 0 0 1 1.068-1.068.465.465 0 0 0 .738-.568c.413-.286.85-.539 1.307-.757a.466.466 0 0 0 .86-.356c.47-.168.958-.299 1.459-.39a.466.466 0 0 0 .923-.12 9.431 9.431 0 0 1 1.51 0 .466.466 0 0 0 .923.12c.502.091.989.223 1.459.39a.465.465 0 0 0 .86.356 9.26 9.26 0 0 1 1.307.757.467.467 0 0 0 .738.568 9.285 9.285 0 0 1 1.068 1.068.465.465 0 0 0 .568.738c.286.413.539.85.757 1.307a.466.466 0 0 0 .356.86c.168.47.299.958.39 1.459a.466.466 0 0 0 .12.923 9.431 9.431 0 0 1 0 1.51.466.466 0 0 0-.12.923 9.242 9.242 0 0 1-.39 1.459z" style="fill:rgb(0, 0, 136);animation-play-state:paused" ></path>
<path fill="#008" d="M51.384 51.249c.066-.073.127-.152.181-.235l1.507 1.129 5.01 2.523-4.69-3.077-1.732-.741c.045-.088.084-.179.114-.274l1.748.701 5.492 1.14-5.326-1.758-1.864-.267c.02-.096.032-.194.037-.295l1.871.225 5.6-.32-5.6-.32-1.871.225a1.803 1.803 0 0 0-.037-.295l1.864-.267 5.326-1.758-5.492 1.14-1.748.701a2.001 2.001 0 0 0-.114-.274l1.732-.741 4.69-3.077-5.01 2.523-1.507 1.129a1.958 1.958 0 0 0-.181-.235l1.482-1.164L56.6 43.4l-4.186 3.734-1.164 1.482a1.882 1.882 0 0 0-.235-.181l1.129-1.507 2.523-5.01-3.077 4.69-.741 1.732a1.778 1.778 0 0 0-.274-.114l.701-1.748 1.14-5.492-1.758 5.326-.267 1.864a1.903 1.903 0 0 0-.295-.037l.225-1.871-.32-5.6-.32 5.6.225 1.871c-.1.005-.199.016-.295.037l-.267-1.864-1.758-5.326 1.14 5.492.701 1.748c-.095.031-.186.07-.274.114l-.741-1.732-3.077-4.69 2.523 5.01 1.129 1.507a1.958 1.958 0 0 0-.235.181l-1.164-1.482L43.4 43.4l3.734 4.186 1.482 1.164a1.882 1.882 0 0 0-.181.235l-1.507-1.129-5.01-2.523 4.69 3.077 1.732.741a1.778 1.778 0 0 0-.114.274l-1.748-.701-5.492-1.14 5.326 1.758 1.864.267c-.02.096-.032.194-.037.295l-1.871-.225-5.6.32 5.6.32 1.871-.225c.005.1.016.199.037.295l-1.864.267-5.326 1.758 5.492-1.14 1.748-.701c.031.095.07.186.114.274l-1.732.741-4.69 3.077 5.01-2.523 1.507-1.129c.054.083.115.161.181.235l-1.482 1.164L43.4 56.6l4.186-3.734 1.164-1.482c.073.066.152.127.235.181l-1.129 1.507-2.523 5.01 3.077-4.69.741-1.732c.088.045.179.084.274.114l-.701 1.748-1.14 5.492 1.758-5.326.267-1.864c.096.02.194.032.295.037l-.225 1.871.32 5.6.32-5.6-.225-1.871c.1-.005.199-.016.295-.037l.267 1.864 1.758 5.326-1.14-5.492-.701-1.748c.095-.031.186-.07.274-.114l.741 1.732 3.077 4.69-2.523-5.01-1.129-1.507c.083-.054.161-.115.235-.181l1.164 1.482L56.6 56.6l-3.734-4.186-1.482-1.165z" style="fill:rgb(0, 0, 136);animation-play-state:paused" ></path></g></g>
<metadata xmlnsD="https://loading.io/stock/" style="animation-play-state:paused" ><dname style="animation-play-state:paused" >India</dname>
<dtags style="animation-play-state:paused" >India,national flag,country,nation symbol</dtags>
<dlicense style="animation-play-state:paused" >by</dlicense>
<dslug style="animation-play-state:paused" >sbin2q</dslug></metadata></g><!-- generated by https://loading.io/ --></svg>