<?xml version="1.0" encoding="utf-8"?><svg xml:space="preserve" viewBox="0 0 100 100" y="0" x="0" xmlns="http://www.w3.org/2000/svg" id="Layer_1" version="1.1" width="50px" height="50px" xmlns:xlink="http://www.w3.org/1999/xlink" style="width:100%;height:100%;background-size:initial;background-repeat-y:initial;background-repeat-x:initial;background-position-y:initial;background-position-x:initial;background-origin:initial;background-color:initial;background-clip:initial;background-attachment:initial;animation-play-state:paused" ><g class="ldl-scale" style="transform-origin:50% 50%;transform:rotate(0deg) scale(0.8, 0.8);animation-play-state:paused" ><g style="animation-play-state:paused" ><path fill="#666766" d="M83.8 31.2H16.2c-3.5 0-6.2-2.8-6.2-6.2s2.8-6.2 6.2-6.2h67.5c3.5 0 6.2 2.8 6.2 6.2s-2.7 6.2-6.1 6.2z" style="fill:rgb(49, 57, 90);animation-play-state:paused" ></path></g>
<g style="animation-play-state:paused" ><path fill="#666766" d="M83.8 56.2H16.2c-3.5 0-6.2-2.8-6.2-6.2s2.8-6.2 6.2-6.2h67.5c3.5 0 6.2 2.8 6.2 6.2s-2.7 6.2-6.1 6.2z" style="fill:rgb(49, 57, 90);animation-play-state:paused" ></path></g>
<g style="animation-play-state:paused" ><path fill="#666766" d="M83.8 81.2H16.2c-3.5 0-6.2-2.8-6.2-6.2s2.8-6.2 6.2-6.2h67.5c3.5 0 6.2 2.8 6.2 6.2s-2.7 6.2-6.1 6.2z" style="fill:rgb(49, 57, 90);animation-play-state:paused" ></path></g>
<metadata xmlnsD="https://loading.io/stock/" style="animation-play-state:paused" ><dname style="animation-play-state:paused" >menu</dname>
<dtags style="animation-play-state:paused" >hamburger,dropdown,responsive,mobile,info,navbar,navigation,tab,menu,web application</dtags>
<dlicense style="animation-play-state:paused" >free</dlicense>
<dslug style="animation-play-state:paused" >hs2nrd</dslug></metadata></g><!-- generated by https://loading.io/ --></svg>